<svg width="120" height="120" viewBox="0 0 120 120" fill="none" xmlns="http://www.w3.org/2000/svg">
  <circle cx="60" cy="60" r="56" stroke="#D4AF37" stroke-width="3"/>
  <circle cx="60" cy="60" r="52" stroke="#258D46" stroke-width="2"/>
  <path d="M60 35 C55 45 50 50 55 55 C50 55 45 50 50 45 C45 45 45 50 50 55 C45 60 50 65 60 65 C70 65 75 60 70 55 C75 55 75 45 70 45 C75 50 75 55 70 55 C65 50 70 45 65 35 C60 30 55 35 60 35Z" fill="#258D46"/>
  <path d="M60 35 C65 45 70 50 65 55 C70 55 75 50 70 45 C75 45 75 55 70 55 C75 60 70 65 60 65 C50 65 45 60 50 55 C45 55 45 45 50 45 C45 50 50 55 55 55 C50 50 55 45 60 35Z" fill="#D4AF37"/>
  <rect x="25" y="70" width="70" height="22" rx="4" fill="#141D32" stroke="#258D46" stroke-width="2"/>
  <text x="60" y="85" text-anchor="middle" fill="#D4AF37" font-weight="bold" font-size="14" font-family="sans-serif">LOTOBRASIL</text>
</svg>
